<svg xmlns="http://www.w3.org/2000/svg" width="70" height="70" viewBox="0 0 70 70">
    <defs>
        <linearGradient id="dqid2kvo7a" x1=".5" x2=".5" y2="1" gradientUnits="objectBoundingBox">
            <stop offset="0" stop-color="#26890f"/>
            <stop offset="1" stop-color="#4fad3b"/>
        </linearGradient>
    </defs>
    <path data-name="Path 230480" d="m0 31.419.131 1.522c.025.006.053.009.078.016a3.79 3.79 0 0 0 .1-.613 29.239 29.239 0 0 1 2.745-11.492 34.135 34.135 0 0 1 5.817-9.042 34.586 34.586 0 0 1 11.275-8.441A32.225 32.225 0 0 1 28.461.678c1.7-.3 3.438-.394 5.158-.584a26.1 26.1 0 0 1 5.651.234 32.989 32.989 0 0 1 8.468 2.116c.663.256 1.31.55 1.963.828a3.015 3.015 0 0 1 .319.184 1.154 1.154 0 0 1-.144.206c-1.529 1.26-3.063 2.513-4.592 3.775a.736.736 0 0 1-.738.156c-1.735-.45-3.463-.969-5.226-1.269a24.419 24.419 0 0 0-6.58-.272 31.087 31.087 0 0 0-8.687 2.022 26.417 26.417 0 0 0-6.653 3.864 37.111 37.111 0 0 0-4.482 4.241A23.923 23.923 0 0 0 9 22.086a43.144 43.144 0 0 0-1.77 4.419 27.4 27.4 0 0 0-1.05 5.035 27.272 27.272 0 0 0-.2 4.341 29.841 29.841 0 0 0 .741 5.757 28.466 28.466 0 0 0 3.992 9.2 27.571 27.571 0 0 0 5.645 6.376 31.59 31.59 0 0 0 7.127 4.441A23.255 23.255 0 0 0 29 63.428a44.565 44.565 0 0 0 5.461.647 30.647 30.647 0 0 0 4.064-.256 25.508 25.508 0 0 0 6.692-1.581 28.369 28.369 0 0 0 7.383-4.073 32.421 32.421 0 0 0 5.251-5.222 27.4 27.4 0 0 0 4.089-6.976 26.661 26.661 0 0 0 1.844-6.71 27.34 27.34 0 0 0 .128-7.163c-.1-.794-.241-1.581-.347-2.372a.619.619 0 0 1 .091-.425c1.247-1.591 2.507-3.169 3.757-4.754.222-.281.409-.584.672-.963a35.026 35.026 0 0 1 .515 21.174 33.881 33.881 0 0 1-11.725 17.54 33.244 33.244 0 0 1-19.7 7.56l1.028.159h-6.454c.391-.044.781-.088 1.172-.128a1.733 1.733 0 0 0-.544-.119c-1.3-.122-2.613-.156-3.889-.388a32.767 32.767 0 0 1-5.908-1.694 36.343 36.343 0 0 1-9.768-5.654 33.468 33.468 0 0 1-6.527-7.1 34.251 34.251 0 0 1-5.066-11.038C.863 42.5.641 41.063.416 39.638a19.549 19.549 0 0 1-.091-2.013 5.841 5.841 0 0 0-.116-.694l-.063.019C.094 37.46.047 37.979 0 38.5z" transform="translate(0 -.013)" style="fill:url(#dqid2kvo7a)"/>
    <path data-name="Path 230481" d="M107.319 29.944a192.079 192.079 0 0 0-31.275 45.032c-.161-.36-.276-.649-.413-.925-1.068-2.12-2.045-4.3-3.24-6.341a55.222 55.222 0 0 0-3.836-5.683 43.647 43.647 0 0 0-5.221-5.78 47.067 47.067 0 0 0-5.094-4.122.548.548 0 0 1-.183-.462c.13-.574.317-1.136.478-1.7a.342.342 0 0 1 .388-.279q3.958 0 7.918-.016a2.344 2.344 0 0 1 1.238.341 32 32 0 0 1 6.906 5.4c.168.177.326.363.481.552s.282.186.413-.031a99.338 99.338 0 0 1 5.742-8.449c1.266-1.689 2.523-3.386 3.874-5a108.849 108.849 0 0 1 8.26-8.914 189.218 189.218 0 0 1 3.281-3.048 2.3 2.3 0 0 1 1.583-.608h8.225c.121 0 .245.019.475.034z" transform="translate(-39.542 -20.63)" style="fill:url(#dqid2kvo7a)"/>
</svg>